# xmcd CD database file
#
# Track frame offsets:
#	150
#	18002
#	34382
#	54020
#	69030
#	82367
#	100942
#	116807
#	134717
#	152552
#	170790
#	191070
#
# Disc length: 2843 seconds
#
# Revision: 0
# Processed by: cddbd v1.5.1PL0 Copyright (c) Steve Scherf et al.
# Submitted via: CDex 1.51
#
DISCID=a20b190c
DTITLE=ロードオブメジャー - ROAD OF MAJOR?
DYEAR=2005
DGENRE=Punk Rock
TTITLE0=蒼天に向かって
TTITLE1=Evolving!!
TTITLE2=心絵
TTITLE3=偶然という名の必然
TTITLE4=未来の君よ、あの日の君よ
TTITLE5=月の葉書
TTITLE6=風歌
TTITLE7=KODOU
TTITLE8=その手に明日を
TTITLE9=星空も月明かりも
TTITLE10=朝焼け
TTITLE11=親愛なるあなたへ．．．
EXTD=YEAR: 2005
EXTT0=
EXTT1=
EXTT2=
EXTT3=
EXTT4=
EXTT5=
EXTT6=
EXTT7=
EXTT8=
EXTT9=
EXTT10=
EXTT11=
PLAYORDER=
